<svg width="96" height="96" xmlns="http://www.w3.org/2000/svg" xmlns:xlink="http://www.w3.org/1999/xlink" xml:space="preserve" overflow="hidden"><g transform="translate(-592 -312)"><path d="M648 354C648 349.582 644.418 346 640 346 635.582 346 632 349.582 632 354 632 358.418 635.582 362 640 362 644.416 361.995 647.995 358.416 648 354ZM634 354C634 350.686 636.686 348 640 348 643.314 348 646 350.686 646 354 646 357.314 643.314 360 640 360 636.688 359.997 634.003 357.312 634 354Z"/><path d="M660.441 387.71 646 386.105 646 381.346C661.105 378.032 670.663 363.101 667.35 347.996 664.036 332.892 649.105 323.333 634 326.647 618.895 329.961 609.337 344.892 612.65 359.996 614.992 370.669 623.327 379.005 634 381.346L634 386.105 619.559 387.705C617.531 387.93 615.998 389.645 616 391.685L616 395 664 395 664 391.685C664 389.647 662.467 387.935 660.441 387.71ZM614 354C614 339.641 625.641 328 640 328 654.359 328 666 339.641 666 354 666 368.359 654.359 380 640 380 625.647 379.984 614.016 368.353 614 354ZM662 393 618 393 618 391.685C618.001 390.667 618.767 389.812 619.779 389.7L636 387.9 636 381.71C638.653 382.097 641.347 382.097 644 381.71L644 387.9 660.221 389.7C661.233 389.812 661.999 390.667 662 391.685Z"/><path d="M642 334C642 335.105 641.105 336 640 336 638.895 336 638 335.105 638 334 638 332.895 638.895 332 640 332 641.105 332 642 332.895 642 334Z"/><path d="M654 354C654 346.268 647.732 340 640 340 632.268 340 626 346.268 626 354 626 361.732 632.268 368 640 368 647.729 367.992 653.992 361.729 654 354ZM628 354C628 347.373 633.373 342 640 342 646.627 342 652 347.373 652 354 652 360.627 646.627 366 640 366 633.376 365.993 628.007 360.624 628 354Z"/></g></svg>